<svg xmlns="http://www.w3.org/2000/svg" version="1.1" xmlns:xlink="http://www.w3.org/1999/xlink" xmlns:svgjs="http://svgjs.dev/svgjs" width="1000" height="1000" viewBox="0 0 1000 1000"><rect width="1000" height="1000" fill="#ffffff"></rect><g transform="matrix(0.7,0,0,0.7,149.32500031788368,137.34388663967604)"><svg viewBox="0 0 238 247" data-background-color="#ffffff" preserveAspectRatio="xMidYMid meet" height="1037" width="1000" xmlns="http://www.w3.org/2000/svg" xmlns:xlink="http://www.w3.org/1999/xlink"><g id="tight-bounds" transform="matrix(1,0,0,1,0.22950010808045818,-0.09999999999999432)"><svg viewBox="0 0 237.54086172106827 247.2" height="247.2" width="237.54086172106827"><g><svg></svg></g><g><svg viewBox="0 0 237.54086172106827 247.2" height="247.2" width="237.54086172106827"><g transform="matrix(1,0,0,1,0,47.215199999999996)"><svg viewBox="0 0 237.54086172106827 152.7696" height="152.7696" width="237.54086172106827"><g><svg viewBox="0 0 237.54086172106827 152.7696" height="152.7696" width="237.54086172106827"><g><svg viewBox="0 0 237.54086172106827 152.7696" height="152.7696" width="237.54086172106827"><g><svg viewBox="0 0 237.54086172106827 152.7696" height="152.7696" width="237.54086172106827"><g id="textblocktransform"><svg viewBox="0 0 237.54086172106827 152.7696" height="152.7696" width="237.54086172106827" id="textblock"><g><svg viewBox="0 0 237.54086172106827 152.7696" height="152.7696" width="237.54086172106827"><g transform="matrix(1,0,0,1,0,0)"><svg width="237.54086172106827" viewBox="2.700000047683716 -33.70000076293945 52.39999771118164 33.70000076293945" height="152.7696" data-palette-color="#000000"><path d="M26.5-4.25L26.5 0 2.7 0 2.7-4.05 19.7-29.45 2.95-29.45 2.95-33.7 25.8-33.7 25.8-29.75 8.75-4.25 26.5-4.25ZM42.8-11.95L42.8-11.95 38-11.95 38 0 32.85 0 32.85-33.7 42.5-33.7Q48.3-33.7 51.7-30.63 55.1-27.55 55.1-22.75 55.1-17.95 51.67-14.95 48.25-11.95 42.8-11.95ZM42.3-29.45L42.3-29.45 38-29.45 38-16.2 42.4-16.2Q46.05-16.2 47.97-18 49.9-19.8 49.9-22.75L49.9-22.75Q49.9-25.85 47.95-27.65 46-29.45 42.3-29.45Z" opacity="1" transform="matrix(1,0,0,1,0,0)" fill="#000000" class="wordmark-text-0" data-fill-palette-color="primary" id="text-0"></path></svg></g></svg></g></svg></g></svg></g><g></g></svg></g></svg></g></svg></g><path d="M0 41.215L0 1 237.541 1 237.541 41.215 223.764 41.215 223.764 14.777 13.777 14.777 13.777 41.215 0 41.215M0 205.985L0 246.2 237.541 246.2 237.541 205.985 223.764 205.985 223.764 232.423 13.777 232.423 13.777 205.985 0 205.985" fill="#000000" stroke="transparent" data-fill-palette-color="primary"></path></svg></g><defs></defs></svg><rect width="237.54086172106827" height="247.2" fill="none" stroke="none" visibility="hidden"></rect></g></svg></g></svg>